<?xml version="1.0" encoding="UTF-8" standalone="no"?>
<!DOCTYPE svg PUBLIC "-//W3C//DTD SVG 1.1//EN"
 "http://www.w3.org/Graphics/SVG/1.1/DTD/svg11.dtd">
<!-- Generated by graphviz version 2.26.3 (20100126.1600)
 -->
<!-- Title: G Pages: 1 -->
<svg width="118pt" height="292pt"
 viewBox="0.00 0.00 118.00 292.00" xmlns="http://www.w3.org/2000/svg" xmlns:xlink="http://www.w3.org/1999/xlink">
<g id="graph1" class="graph" transform="scale(1 1) rotate(0) translate(4 288)">
<title>G</title>
<polygon fill="white" stroke="white" points="-4,5 -4,-288 115,-288 115,5 -4,5"/>
<g id="graph2" class="cluster"><title>cluster_</title>
<polyline fill="none" stroke="gray" points="20,-8 90,-8 "/>
<path fill="none" stroke="gray" d="M90,-8C96,-8 102,-14 102,-20"/>
<polyline fill="none" stroke="gray" points="102,-20 102,-264 "/>
<path fill="none" stroke="gray" d="M102,-264C102,-270 96,-276 90,-276"/>
<polyline fill="none" stroke="gray" points="90,-276 20,-276 "/>
<path fill="none" stroke="gray" d="M20,-276C14,-276 8,-270 8,-264"/>
<polyline fill="none" stroke="gray" points="8,-264 8,-20 "/>
<path fill="none" stroke="gray" d="M8,-20C8,-14 14,-8 20,-8"/>
</g>
<!-- \\Feed_Conf -->
<g id="node2" class="node"><title>\\Feed_Conf</title>
<a xlink:href="class.Feed_Conf.html" xlink:title="Feed_Conf" target="_parent">
<polygon fill="none" stroke="black" points="93,-268 17,-268 17,-232 93,-232 93,-268"/>
<text text-anchor="middle" x="55" y="-247.1" font-family="Courier,monospace" font-size="11.00">Feed_Conf</text>
</a>
</g>
<!-- \\Feed_Page -->
<g id="node3" class="node"><title>\\Feed_Page</title>
<a xlink:href="class.Feed_Page.html" xlink:title="Feed_Page" target="_parent">
<polygon fill="none" stroke="black" points="93,-214 17,-214 17,-178 93,-178 93,-214"/>
<text text-anchor="middle" x="55" y="-193.1" font-family="Courier,monospace" font-size="11.00">Feed_Page</text>
</a>
</g>
<!-- \\Feed -->
<g id="node4" class="node"><title>\\Feed</title>
<a xlink:href="class.Feed.html" xlink:title="Feed" target="_parent">
<polygon fill="none" stroke="black" points="82,-160 28,-160 28,-124 82,-124 82,-160"/>
<text text-anchor="middle" x="55" y="-139.1" font-family="Courier,monospace" font-size="11.00">Feed</text>
</a>
</g>
<!-- \\Session -->
<g id="node5" class="node"><title>\\Session</title>
<a xlink:href="class.Session.html" xlink:title="Session" target="_parent">
<polygon fill="none" stroke="black" points="87,-106 23,-106 23,-70 87,-70 87,-106"/>
<text text-anchor="middle" x="55" y="-85.1" font-family="Courier,monospace" font-size="11.00">Session</text>
</a>
</g>
<!-- \\MyTool -->
<g id="node6" class="node"><title>\\MyTool</title>
<a xlink:href="class.MyTool.html" xlink:title="MyTool" target="_parent">
<polygon fill="none" stroke="black" points="83,-52 27,-52 27,-16 83,-16 83,-52"/>
<text text-anchor="middle" x="55" y="-31.1" font-family="Courier,monospace" font-size="11.00">MyTool</text>
</a>
</g>
</g>
</svg>
